<?xml version="1.0" encoding="UTF-8"?>
<svg id="Layer_1" xmlns="http://www.w3.org/2000/svg" viewBox="0 0 1275.59 1275.59">
    <defs>
        <style>.cls-1,.cls-2{stroke-width:0px;}.cls-2{fill:#fff;}</style>
    </defs>
    <rect class="cls-2" x="57.4" y="57.4" width="1160.79" height="1160.79" rx="580.39" ry="580.39" />
    <path class="cls-1"
        d="M763.71,702.75c0-57.18-.02-114.36.01-171.53,0-15.28,2.28-17.62,21.21-17.62,1.03.1,2.2.1,3.38.1q33.69,0,54.05,43.91c13.09,26.56,25.55,53.45,39.28,79.67,8.48,16.19,18.46,31.65,28.55,46.91,2.35,3.56,7.9,5,11.98,7.42,1.39-3.87,3.98-7.74,3.99-11.61.11-47.81-.07-95.61-.36-143.42-.11-17.06,6.13-24.4,20.79-23.52,12.28.74,17.85,9.75,15.7,25.07-.43,3.03-.23,6.16-.23,9.24-.01,60-.03,120.01.03,180.01,0,4.08.02,8.12.02,12.03,0,18.67-5.02,23.07-20.81,23.07-1.02,0-2.68,0-4.41,0-2.25,0-4.62,0-5.84,0-25.04,0-23.81.79-36.72-26.11-1.17-2.44-2.45-5.1-3.88-8.01-15.37-29.17-30.78-55.39-47.6-85.43-8.98-16.42-16.51-33.63-25.28-50.18-2.18-4.11-3.58-7.41-9.97-10.5-4.1,4.1-5.91,8.73-5.89,13.08.17,49.54,1,99.08,1.47,148.63.09,9.2-1.98,16.68-13.89,17.2-23.34,1.02-25.56-.69-25.56-23.46,0-11.66,0-23.32,0-34.97Z" />
    <path class="cls-1"
        d="M509.46,621.25c0,33.01,2.98,62.97-13.82,91.68-17.84,30.47-45.79,42.91-77.12,47.12-29.96,4.03-60.75,2.62-91.14,2.01-4.92-.1-13.83-8.41-13.89-13.01-.86-67.5-.52-135.01-.48-202.51,0-4.43-.05-8.86-.14-13.29-.34-15.67,5.5-19.66,21.02-18.65,26.6,1.74,53.36,1.08,79.97,2.73,49.62,3.08,91.24,32.73,95.48,83.32,0,8.04.11,14.3.11,20.61ZM352.81,697.99c.22,16.31-.24,28,19.88,28,3.6,0,7.13.38,11.02.38,40.3,0,77.52-15.2,85.11-54.31,3.5-18.07,2.22-37.14,2.47-55.76.42-30.41-14.75-53.25-43.86-60.76-20.5-5.28-41.89-6.51-63.99-6.51-3.51,0-10.13,4.85-10.26,8.59-.95,26.96-.51,53.97-.51,80.96" />
    <path class="cls-1"
        d="M702.62,762.89c-15.47-.38-24.93-6.25-31.83-19.84-9.98-19.66-21.97-38.29-33.07-57.38-3.7-6.36-7.3-12.78-10.95-19.17-4.49,5.94-9.44,11.6-13.37,17.89-14.46,23.11-28.33,46.6-42.99,69.58-4.39,6.88-35.23,10.66-41.31,5-2.35-2.19-3.27-9.42-1.47-12.03,23.53-34.17,47.9-67.76,71.31-102.01,2.59-3.79,2.73-12.1.3-15.99-11.93-19.08-24.5-37.76-37.18-56.36-2.68-3.94-5.37-7.87-8.06-11.8-6.33-9.26-13.95-17.66-20-27.09-5.75-8.96-3.7-16.52,7.21-19.83,13.9-4.22,32.29,3.73,39.52,16.39,12.47,21.84,24.98,43.65,37.9,65.22,1.89,3.16,6.81,7.36,9.12,6.73,3.4-.94,6.37-5.44,8.38-9.06,12.85-23.14,25.56-58.34,41.39-79.18,9.3-1.01,18.1-1,34.56.74,1.14,5.4,5.09,12.59,2.98,15.92-20.33,31.92-42.05,62.94-62.34,94.88-3.14,4.95-3.93,14.98-1,19.6,16.97,26.75,35.35,52.61,53.32,78.72,2.5,3.63,5.95,6.7,7.99,10.54,3.6,6.8,6.45,14,9.61,21.04-6.67,2.5-13.33,5.01-20,7.51Z" />
    <polygon class="cls-1"
        points="906.78 762.51 921.16 762.51 891.4 720.19 886.79 721.55 906.78 762.51" />
    <polyline class="cls-1"
        points="794.27 513.71 822.94 515.43 846.6 566.25 810.38 554.73 794.27 516.4" />
    <polygon class="cls-1"
        points="962.73 762.51 962.73 513 925.5 513 926.16 677.52 936.88 762.51 962.73 762.51" />
    <circle class="cls-1" cx="406.18" cy="647.25" r="18.63" />
</svg>